<?xml version="1.0" encoding="UTF-8" standalone="no"?><!DOCTYPE svg PUBLIC "-//W3C//DTD SVG 1.1//EN" "http://www.w3.org/Graphics/SVG/1.1/DTD/svg11.dtd"><svg width="100%" height="100%" viewBox="0 0 1065 248" version="1.1" xmlns="http://www.w3.org/2000/svg" xmlns:xlink="http://www.w3.org/1999/xlink" xml:space="preserve" xmlns:serif="http://www.serif.com/" style="fill-rule:evenodd;clip-rule:evenodd;stroke-linejoin:round;stroke-miterlimit:2;"><rect id="Logo-optimized" serif:id="Logo optimized" x="0.947" y="0" width="1063.73" height="247.688" style="fill:none;"/><path d="M28.87,45.638c-0.876,-1.509 -1.829,-4.938 -1.878,-6.186c-0.087,-2.342 1.074,-4.967 3.875,-7.076c2.156,-1.624 6.64,-2.98 7.936,-3.355l16.185,-1.279c8.594,0.141 19.742,2.242 28.715,7.241c6.837,3.811 12.34,9.269 15.368,15.804c4.682,10.213 5.615,20.499 3.251,30.156c-0.774,3.161 -1.876,6.262 -3.307,9.259c8.971,3.348 18.053,8.516 26.035,14.944c13.315,10.722 23.22,25.043 25.713,39.809c5.571,29.512 -30.052,55.898 -63.206,58.306c-10.213,0.741 -20.182,-0.681 -28.412,-4.214c0.126,0.185 0.244,0.375 0.353,0.571c0.452,0.116 1.075,0.177 0.685,0.229c-0.237,0.032 -0.447,-0.007 -0.622,-0.125l-0.063,-0.104l-0.133,-0.03l-0.048,-0.018l0.026,0.03l0.218,0.122c0.711,1.26 1.114,2.714 1.114,4.262c2.838,6.857 -4.313,8.441 -5.324,9.473c-2.032,2.075 -5.736,1.076 -11.934,-3.842c-0.943,-0.749 -2.279,-2.756 -3.659,-5.596c-2.162,-4.449 -2.777,-11.092 -2.813,-11.998l-0.48,-28.117l-2.201,-80.795c-0.253,-4.428 0.242,-14.416 -0.682,-23.387c-0.196,-1.901 -0.328,-3.773 -0.585,-5.461c-1.353,-0.51 -2.557,-1.446 -3.4,-2.755c-1.087,-1.686 -1.565,-4.207 -0.727,-5.868Zm15.364,154.192l-0.032,0.024c-0.173,0.115 -0.246,0.324 -0.28,0.625l0.312,-0.649Zm14.726,-0.732l0.026,0.051l-0.011,-0.03l-0.015,-0.021Zm-1.656,-45.992c3.622,2.062 6.067,5.958 6.067,10.42c0.454,1.897 2.116,2.822 2.858,4.268c1.378,2.683 3.823,4.016 6.735,4.996c6.492,2.184 14.661,2.257 22.711,0.565c15.615,-3.283 32.851,-10.959 31.124,-24.705c-1.335,-9.561 -8.117,-18.559 -16.499,-25.714c-7.787,-6.646 -17.028,-11.816 -25.654,-14.045c-5.395,5.259 -16.997,15.399 -22.895,16.855c-1.948,0.481 -3.661,0.473 -5.178,0.099c0.272,9.084 0.441,18.175 0.731,27.261Zm-11.975,-109.646c1.496,2.608 2.734,5.754 3.742,9.205c2.923,10.005 3.479,23.08 4.341,28.363c0.566,4.438 1.045,8.881 1.445,13.331l0.138,-0.113c7.927,-6.41 21.929,-8.734 28.644,-7.955l1.57,0.231c1.334,-2.777 2.283,-5.662 2.812,-8.61c1.166,-6.494 -0.024,-13.256 -3.582,-19.809c-2.351,-4.496 -7.23,-7.325 -12.32,-9.617c-5.954,-2.681 -12.471,-4.474 -17.853,-4.876l-8.937,-0.15Z" style="fill:#149620;"/><path d="M151.757,179.133l0.072,-0.931c1.252,-8.77 3.714,-30.67 4.028,-32.564c1.881,-10.589 3.774,-21.271 6.337,-31.834c3.832,-15.793 8.811,-31.328 13.775,-46.625l8.416,-21.647c1.2,-2.331 2.981,-7.044 4.611,-8.778c4.119,-4.38 8.473,-4.93 13.196,-0.295c1.669,1.638 3.352,5.165 3.774,10.034c0.601,6.919 -0.733,18.295 -0.619,21.319c0.656,14.501 1.142,29.215 2.097,43.851c0.626,9.593 1.448,19.147 2.747,28.573l5.479,32.345c0.258,1.581 2.045,13.932 2.125,17.111c0.183,7.221 -5.994,8.963 -7.106,9.03c-0.757,0.045 -6.65,0.624 -8.636,-6.298c-0.378,-1.132 -0.48,-2.291 -0.336,-3.401c-0.777,-3.66 -2.54,-11.923 -2.805,-12.975l-7.468,-33.468c-1.112,-9.91 -1.778,-19.938 -2.133,-30.006c-0.32,-9.111 -0.407,-18.247 -0.461,-27.345l-16.437,63.817c-0.454,1.841 -4.516,23.214 -6.428,31.747c-1.015,4.527 -2.717,7.082 -2.996,7.328c-2.814,2.688 -7.28,2.585 -9.967,-0.228c-1.87,-1.959 -2.389,-4.717 -1.58,-7.119c0.178,-0.939 0.142,-0.793 0.315,-1.641Z" style="fill:#149620;"/><path d="M172.222,138.974c1.169,-0.73 2.803,0.903 4.913,1.014c4.142,0.218 8.82,1.102 13.182,1.287c5.09,0.217 9.676,-0.46 12.684,-1.298l21.182,-9.133c4.888,-1.88 7.33,-7.374 5.45,-12.262c-1.88,-4.888 -7.374,-7.33 -12.262,-5.45l-19.816,5.971c-2.118,0.524 -5.501,0.046 -9.134,0.3c-4.319,0.302 -8.786,0.973 -12.706,2.118c-6.223,1.818 -11.171,3.933 -13.417,7.438c-2.764,2.739 -2.784,7.206 -0.046,9.969c2.739,2.764 7.206,2.785 9.97,0.046Z" style="fill:#149620;"/><path d="M246.718,163.11l0.346,-32.756c-0.223,-14.18 -1.661,-28.212 -3.713,-42.155c-1.37,-9.308 -2.82,-18.577 -5.105,-27.772c-7.74,-31.905 9.471,-10.625 12.242,-7.051c1.064,1.164 1.666,2.601 1.805,4.073c4.165,11.461 7.609,23.071 9.815,34.988c1.708,9.231 2.619,18.597 3.159,28.014c12.019,-10.239 23.862,-7.617 34.031,0.312c12.802,9.981 22.101,31.264 22.541,43.609c0.852,17.555 -17.19,36.668 -35.603,43.711c-8.045,3.078 -16.306,3.976 -22.961,2.105c-1.626,16.624 -4.803,22.339 -7.973,20.064c-4.249,3.041 -8.503,-8.236 -9.024,-40.847c-0.419,-1.74 -0.417,-3.485 -0.048,-5.123l-0.014,-3.158l-0.003,-0.235c-0.003,-0.835 -0.012,-3.768 -0.016,-4.956l0.075,-1.595c0.053,-3.728 0.171,-7.49 0.446,-11.228Zm17.683,14.448c2.025,1.524 3.557,3.726 4.219,6.374c0.34,0.871 1.419,-0.088 2.176,0.035c2.424,0.393 5.268,0.193 8.213,-0.762c3.118,-1.012 6.336,-2.363 9.243,-4.254c5.943,-3.865 11.76,-8.697 12.044,-14.579c0.248,-6.762 -3.35,-17.924 -9.301,-25.441c-4.166,-5.263 -9.84,-8.847 -15.782,-3.013c-4.303,4.307 -6.857,9.392 -8.389,14.83c-0.802,2.851 -1.346,5.79 -1.708,8.775l-0.127,6.512l-0.582,9.898l-0.006,1.625Zm-23.64,-114.153c-0.726,-0.67 -1.508,-1.486 -1.508,-1.486c0,0 0.807,0.979 1.063,1.174l0.445,0.312Z" style="fill:#149620;"/><path d="M324.1,64.008l-0.27,-0.052c-1.32,-0.288 -4.89,-1.441 -5.393,-6.311c-0.03,-0.285 -0.043,-0.989 0.067,-1.976c0.205,-1.848 1.301,-6.167 2.039,-7.436c1.645,-2.827 4.105,-3.449 5.691,-3.624c2.206,-0.245 4.887,0.256 6.96,3.563c3.627,5.787 5.771,12.954 7.068,20.536c1.691,9.891 1.849,20.535 2.419,29.168l0.493,28.22c3.928,-3.537 8.255,-6.402 12.781,-8.275c12.37,-5.121 26.125,-4.015 37.754,9.438c11.862,13.166 14.254,27.363 10.837,39.943c-3.412,12.56 -13.167,23.762 -27.304,30.826c-7.965,4.035 -18.801,7.487 -28.501,7.194c-4.176,-0.127 -8.136,-0.972 -11.757,-2.606c-0.987,0.281 -1.871,0.349 -2.458,0.381c-2.401,0.133 -6.147,-0.289 -8.723,-4.805c-0.185,-0.325 -0.909,-1.491 -1.174,-3.667c-0.024,-0.198 -0.062,-0.625 -0.101,-1.225l-0.195,-3.906l-0.102,-1.044l-0.002,-1.031l-0.197,-4.5l0.132,-21.152c0.166,-1.682 0.443,-3.384 0.827,-5.092l0.02,-1.681l0.876,-21.373l0.634,-34.893c-0.222,-8.183 0.074,-18.255 -1.162,-27.668c-0.312,-2.38 -0.707,-4.718 -1.259,-6.952Zm23.048,119.665c1.572,0.658 5.684,0.941 5.684,0.941c5.671,-0.186 11.641,-1.965 16.302,-3.96c9.229,-4.01 16.326,-10.379 18.786,-18.293c2.336,-7.513 0.314,-15.986 -6.695,-24.066c-7.467,-8.243 -16.346,-6.793 -23.394,-1.499c-7.45,5.597 -13.227,15.038 -14.65,23.942l0.142,11.958l0.077,7.974c0,0 2.271,2.386 3.748,3.003Z" style="fill:#149620;"/><path d="M425.219,52.789c-0.461,-1.049 -0.671,-2.224 -0.563,-3.443c0.168,-3.862 2.248,-5.276 2.707,-5.685c2.785,-2.481 5.765,-2.357 8.93,-0.063c0.571,0.413 1.954,1.728 2.699,4.431c0.587,2.13 1.612,10.291 1.962,13.603l2.64,23.938c0.84,14.104 1.438,28.205 1.263,42.321c-0.258,20.894 -1.811,41.743 -2.127,62.607c0,4.895 -3.975,8.87 -8.87,8.87c-4.896,0 -8.87,-3.975 -8.87,-8.87l1.293,-104.378l-0.596,-23.534c-0.04,-2.02 -0.319,-7.181 -0.468,-9.797Z" style="fill:#149620;"/><path d="M472.108,171.485c3.05,2.457 7.715,3.871 14.393,3.675l10.797,-0.937l28.063,-8.713c6.051,-2.793 13.23,-0.148 16.023,5.903c2.792,6.05 0.147,13.229 -5.903,16.022l-31.277,11.786c-3.221,0.956 -6.35,1.602 -9.509,1.998c-3.221,0.404 -6.478,0.48 -9.903,0.301c-7.65,-0.624 -14.003,-1.939 -18.894,-4.421c-18.389,-9.333 -22.384,-26.426 -15.482,-43.674c3.949,-9.868 11.308,-19.458 19.877,-27.226c8.343,-7.562 17.64,-12.882 26.592,-14.702c8.068,-1.64 15.595,-0.353 23.106,4.994c4.992,3.855 5.889,12.438 -0.926,21.693c-8.729,11.853 -32.406,26.455 -36.57,29.076c-2.319,1.424 -4.534,2.607 -6.876,3.353c-1.148,0.365 -2.311,0.672 -3.511,0.872Zm33.958,-45.495c-2.395,-2.136 -5.132,-3.329 -8.246,-3.026c-7.787,0.757 -15.913,6.86 -21.839,14.494c-2.454,3.161 -4.148,6.816 -5.737,10.419c-1.311,2.974 -2.253,6.03 -2.68,8.972l0.277,0.14l0.13,0.084l5.723,-2.676c2.851,-2.14 15.715,-12.647 25.097,-21.944c2.186,-2.166 5.838,-4.667 7.275,-6.463Z" style="fill:#149620;"/><path d="M609.591,93.293c0.086,-1.679 0.104,-14.882 -0.586,-17.289c-0.662,-2.309 -0.611,-7.772 -0.796,-9.772c-0.248,-2.677 2.949,-6.75 5.347,-7.964c3.131,-1.585 6.051,-0.447 8.751,1.796c2.418,2.007 4.411,6.632 5.605,12.422c1.514,7.339 1.578,17.144 1.865,20.368l-0.668,63.526l-2.181,25.674c-0.064,0.704 -0.634,7.236 -0.868,9.393l-0.084,0.693c0.404,12.199 -3.08,19.249 -6.745,19.884c-4.249,3.053 -8.574,-4.803 -7.842,-20.699c0,-0.254 0.013,-0.505 0.038,-0.753l0,-0.032c0.034,-2.114 0.001,-8.502 0,-9.19l-0.155,-24.97l-1.681,-63.087Z" style="fill:#149620;"/><path d="M611.926,63.316c-0.482,0.925 -1.184,1.75 -2.085,2.401c-2.177,1.733 -4.026,1.488 -4.787,1.482c-3.486,-0.028 -8.737,-2.469 -6.199,-9.84c0.302,-0.877 2.338,-4 3.121,-5.296l8.868,-8.967c4.503,-3.254 10.268,-5.778 16.292,-7.174c6.195,-1.436 12.654,-1.487 18.286,-0.268c11.703,2.807 21.987,10.253 30.164,20.181c11.187,13.582 18.472,31.686 20.748,46.614c2.689,17.035 -0.586,33.211 -7.586,47.763c-6.853,14.249 -17.393,26.974 -30.643,36.892c-7.044,5.591 -31.038,21.351 -45.235,18.579c-9.869,-1.927 -18.387,-8.611 -16.387,-24.487c0,-4.979 4.042,-9.021 9.021,-9.021c4.978,0 9.02,4.042 9.02,9.021c0.251,1.604 0.916,4.051 1.791,3.428c0.241,-0.171 0.22,-0.737 0.122,-1.1c-0.153,-0.029 -0.24,-0.109 -0.201,-0.246c0.053,-0.191 0.151,-0.029 0.201,0.246c0.262,0.1 0.73,0.075 1.022,0.084c1.814,0.059 3.83,-0.158 5.912,-0.655c9.629,-2.3 20.347,-7.892 24.442,-10.43c11.448,-7.611 21.19,-17.441 27.161,-29.138c5.899,-11.554 8.09,-24.749 5.814,-38.415c-1.788,-10.412 -6.581,-22.609 -13.67,-32.881c-6.576,-9.527 -15.143,-17.492 -25.566,-19.847c-3.397,-0.85 -7.307,-0.763 -11.113,-0.094c-3.991,0.701 -7.928,1.891 -11.031,3.794l-5.312,4.201c-0.208,0.284 -0.754,0.735 -1.28,1.216c1.284,2.185 1.535,3.548 -0.89,1.957c0.295,-0.551 0.513,-1.136 0.649,-1.739l0.241,-0.218l-0.144,-0.251l-0.002,0.016l-0.095,0.453c-0.713,0.655 -1.294,1.32 -0.839,1.627l0.19,0.112Z" style="fill:#149620;"/><path d="M702.937,188.633l-0.752,-0.025c-0.309,-0.024 -0.98,-0.212 -1.986,-0.591c-0.351,-0.132 -1.038,-0.513 -1.999,-1.096c-2.201,-1.337 -6.223,-4.793 -8.889,-11.377c-1.751,-4.326 -1.758,-8.852 -0.911,-13.268c1.096,-5.71 4.315,-11.106 7.785,-15.472c7.411,-8.091 22.419,-15.501 36.304,-15.376c10.466,0.094 20.037,3.773 25.309,12.053c7.138,9.999 1.327,24.276 -8.656,36.519c-7.011,8.597 -15.325,16.325 -22.52,19.264c-4.114,1.68 -7.958,1.581 -11.107,0.881c-3.09,-1.056 -6.289,-2.912 -8.788,-5.861c-1.427,-1.684 -2.691,-3.631 -3.79,-5.651Zm0.939,-18.923c2.125,0.043 4.156,1.236 5.173,3.268c1.561,2.278 3.952,5.088 6.433,7.813c1.534,1.685 3.094,3.308 4.873,3.739c5.766,2.357 18.212,-5.976 25.117,-15.683c4.377,-6.152 6.435,-13.23 2.491,-17.801c-3.575,-3.88 -9.114,-3.836 -14.71,-3.261c-9.093,0.935 -18.969,5.26 -23.602,10.803c-1.759,1.838 -3.54,4.005 -4.591,6.466c-0.641,1.504 -1.302,3.053 -1.184,4.656Z" style="fill:#149620;"/><path d="M767.121,174.317c-0.713,-2.041 -1.177,-4.216 -1.446,-6.448c-0.56,-4.649 -0.163,-9.573 0.528,-13.831c1.47,-9.069 5.217,-20.754 11.156,-30.279c4.535,-7.272 10.441,-13.198 17.359,-16.477c13.306,-6.307 24.88,-3.025 33.614,4.613c11.688,10.223 17.498,29.712 14.206,44.628c-2.084,9.441 -7.101,16.216 -13.594,21.41c-8.235,6.588 -19.324,10.242 -29.589,13.502c-6.459,2.05 -15.402,3.871 -21.816,1.557c-4.493,-1.621 -8.241,-4.814 -10.601,-10.378c-1.128,-2.781 -0.978,-5.766 0.183,-8.297Zm19.514,-1.062c2.012,-0.293 5.198,-0.81 6.88,-1.285c6.884,-1.946 14.316,-3.866 20.494,-7.397c4.721,-2.699 8.729,-6.356 10.265,-12.388c1.908,-7.5 -0.033,-17.015 -4.694,-23.743c-3.959,-5.714 -10.184,-9.356 -17.959,-5.971c-5.472,2.382 -9.698,7.713 -12.994,13.623c-3.789,6.794 -6.336,14.432 -7.54,20.602c-0.49,2.512 -0.889,5.354 -0.823,8.154c0.034,1.403 0.141,2.804 0.46,4.11c1.705,0.708 3.224,1.863 4.356,3.39c0.542,0.295 1.076,0.599 1.555,0.905Z" style="fill:#149620;"/><path d="M898.572,113.974l2.366,-37.388c0.467,-7.063 -0.417,-18.57 0.963,-28.086c0.76,-5.243 2.188,-9.946 4.558,-13.399c1.962,-2.858 4.527,-3.892 7.763,-1.074c0.391,0.341 1.303,1.355 2.023,3.137c1.427,3.536 4.271,13.174 4.306,13.351c1.293,6.156 2.017,12.508 2.238,18.872c0.224,6.417 -0.096,12.847 -1.08,19.121c-1.949,12.745 -5.445,25.767 -10.438,38.276l-0.724,34.146c-0.19,10.975 0.291,19.27 3.372,23.712c0.833,1.201 2.234,0.84 4.039,0.351c2.954,-0.801 6.378,-2.656 10.502,-5.374c4.159,-2.598 9.644,-1.33 12.242,2.829c2.597,4.159 1.33,9.645 -2.829,12.242c-13.765,8.137 -23.565,8.873 -29.883,5.845c-8.839,-4.237 -13.803,-18.268 -12.351,-40.226l0.249,-3.933c-4.058,6.19 -8.505,12.036 -13.264,17.435c-3.654,3.97 -9.503,11.171 -15.765,15.288c-3.952,2.599 -8.094,4.119 -12.06,4.039c-13.292,-0.266 -17.748,-9.588 -15.026,-23.465c3.348,-17.064 18.401,-41.808 22.543,-46.356c2.898,-3.297 6.395,-6.187 10.049,-8.759c2.581,-1.816 5.244,-3.431 8.121,-4.66l10.698,-1.296c1.517,0.249 4.874,2.069 5.577,2.656c1.024,0.852 1.546,1.808 1.811,2.716Zm-0.372,5.87c-0.901,1.806 -2.886,3.54 -7.036,3.565c-1.51,-0.116 -2.874,-0.7 -3.955,-1.604l-2.786,-0.094c-2.62,0.64 -5.224,1.505 -7.482,3.033c-2.388,1.616 -4.369,3.791 -6.19,5.955c-2.598,3.091 -10.038,16.314 -14.702,29.093c-1.95,5.342 -3.392,10.602 -3.623,14.944c-0.126,2.361 -0.066,4.477 2.373,4.428c2.709,-0.044 5.134,-2.559 7.613,-4.927c3.699,-3.532 6.962,-7.697 9.259,-10.298c9.588,-10.406 17.683,-22.838 24.22,-36.044l2.075,-4.348l0.234,-3.703Z" style="fill:#149620;"/><path d="M962.679,67.972c3.405,4.159 5.657,10.174 5.84,19.211c0.375,18.556 -0.795,28.238 -0.795,28.238l-7.855,77.667c0,3.876 -3.147,7.023 -7.023,7.023c-3.876,0 -7.023,-3.147 -7.023,-7.023c-0.549,-13.256 -0.558,-26.69 0.177,-40.135c0.727,-13.298 2.214,-26.552 3.543,-39.61l1.52,-26.16c0.429,-3.829 -0.115,-9.047 -0.143,-11.384c-0.127,-10.519 10.132,-9.815 11.759,-7.827Z" style="fill:#149620;"/><path d="M991.831,161.377c0.101,3.813 0.506,7.574 1.038,11.084c1.996,13.171 10.502,19.567 26.787,2.365c3.691,-3.69 9.683,-3.69 13.374,0c3.691,3.691 3.691,9.684 0,13.374c-28.989,28.824 -48.033,18.671 -54.068,0.059c-4.25,-13.106 -0.045,-32.433 8.246,-47.383c5.598,-10.095 12.882,-18.516 23.316,-20.738c10.889,-4.332 15.876,0.037 18.065,4.223c2.968,5.674 -1.223,17.087 -5.68,24.811c-5.97,7.733 -10.373,10.779 -14.18,12.009c-4.791,1.547 -8.834,-0.295 -16.02,0.167c-0.295,0.03 -0.589,0.042 -0.878,0.029Zm25.296,-32.849c-1.18,-0.428 -2.886,-1.502 -5.058,-1.382c-6.945,1.482 -12.737,6.196 -16.222,12.843c-1.175,2.242 -2.049,4.649 -2.669,7.155c4.382,-0.215 7.263,0.994 10.436,-0.255c1.929,-0.758 3.596,-2.957 6.487,-7.109c2.356,-2.705 4.988,-6.206 6.35,-9.422c0.255,-0.602 0.353,-1.454 0.676,-1.83Z" style="fill:#149620;"/></svg>